<svg
    xmlns="http://www.w3.org/2000/svg"
    width="512"
    height="512"
    viewBox="0 0 512 512">
    <path
        fill="#007BFF"
        d="M256,48C132.288,48,48,132.288,48,256c0,49.012,15.244,94.079,41.066,131.006
        C27.329,353.182,16,307.636,16,256C16,119.062,119.062,16,256,16c114.658,0,210.851,79.507,241.894,188.816
        C443.827,205.044,481,179.055,481,256C481,379.728,379.728,480,256,480c-18.432,0-36.307-2.391-53.863-6.845
        C213.032,473.804,233.451,480,256,480c122.219,0,221-98.781,221-221S378.219,48,256,48z">
        <animateTransform
            attributeName="transform"
            type="rotate"
            from="0 256 256"
            to="360 256 256"
            dur="1s"
            repeatCount="indefinite"/>
    </path>
</svg>
